# xmcd
#
# Track frame offsets:
#	150
#	16985
#	34842
#	49190
#	66286
#	82009
#	98158
#	117354
#	131789
#	151794
#	169567
#	188789
#	204591
#	220059
#
# Disc length: 3140 seconds
#
# Revision: 1
# Processed by: cddbd v1.5.1PL0 Copyright (c) Steve Scherf et al.
# Submitted via: EasyCDDAExtractor 6.5.7.1
#
DISCID=be0c420e
DTITLE=Various Artist - O Aviãozinho
DYEAR=2004
DGENRE=Gaúchas
TTITLE0=Tchê Campeiro - O aviaozinho
TTITLE1=disk mulher deprimida
TTITLE2=buteco do beto
TTITLE3=desilusão
TTITLE4=mulheres do brasil
TTITLE5=porque tu veio
TTITLE6=indiferença
TTITLE7=timidez
TTITLE8=deixe de te amar
TTITLE9=linda demais
TTITLE10=o bugio merece
TTITLE11=saudade da infancia
TTITLE12=pedindo rancheira
TTITLE13=galderiando
EXTD=
EXTT0=
EXTT1=
EXTT2=
EXTT3=
EXTT4=
EXTT5=
EXTT6=
EXTT7=
EXTT8=
EXTT9=
EXTT10=
EXTT11=
EXTT12=
EXTT13=
PLAYORDER=
